# xmcd
#
# Track frame offsets: 
#        150
#        27236
#        52417
#        72798
#        92203
#        119148
#        146765
#        170101
#        198180
#        224092
#        251109
#        273608
#        291328
#        316078
#        334465
#
# Disc length: 4674 seconds
#
# Revision: 0
# Processed by: cddbd v1.5.2PL0 Copyright (c) Steve Scherf et al.
# Submitted via: ExactAudioCopy v1.0b1
#
DISCID=0812400f
DTITLE=Various Artist - Hed Kandi 105 - The Remix 2011 CD Two Saturday Night
DYEAR=2010
DGENRE=House
TTITLE0=Tim Berg - Seek Bromance (Avicil Extended Vocal Mix)
TTITLE1=Example - Two Lives (Wez Clarke Remix)
TTITLE2=Solitaire - You Got The Love (Mark Maitland's Against The Cloc
TTITLE2=k 2011 Mix)
TTITLE3=Byron Stingily - Get Up (Everybody) (Carl Hanaghan and Ted Nilss
TTITLE3=on Remix)
TTITLE4=Nalin and Kane - Beachball (Chris Lake Remix)
TTITLE5=Tyken Feat. Awa - Every Word (Hagenaar and Albrecht 2011 Mix)
TTITLE6=Solu Music Feat. KimBlee - Fade (Frater and Stent 2011 Mix)
TTITLE7=Fehrplay - Ayita vs. Shakedown - At Night (Acapella)
TTITLE8=Mick Lion - Beautiful Monster (OneSaneMan Mix)
TTITLE9=Christian Hoff - Katayama vs. Louie Vega and Jay 'Sinister' Seal
TTITLE9=ee Starring Julie McKnight - Diamond Life (Acapella)
TTITLE10=Steve Angello - Tivoli vs. Afrojack Feat. Eva Simons - Take O
TTITLE10=ver Control (Acapella)
TTITLE11=Benny Benassi Presents The Biz - Satisfaction (Instrumental) 
TTITLE11=vs. Steve Angello and Laidback Luke Feat. Robin S. - Show Me Lo
TTITLE11=ve (A
TTITLE12=Till West and DJ Delicious - Same Man (Hagenaar and Albrecht 2011
TTITLE12=Mix)
TTITLE13=Technotronic Vs Dimitri Vegas and Like Mike - Pump Up The Jam (
TTITLE13=Crowd Is Jumpin Mix)
TTITLE14=Steve Angello - KNAS vs. Dirty South Feat. Rudy - Let It Go (
TTITLE14=Acapella)
EXTD=
EXTT0=
EXTT1=
EXTT2=
EXTT3=
EXTT4=
EXTT5=
EXTT6=
EXTT7=
EXTT8=
EXTT9=
EXTT10=
EXTT11=
EXTT12=
EXTT13=
EXTT14=
PLAYORDER=
